<?xml version="1.0" encoding="UTF-8"?><svg version="1.1" viewBox="3.8457 -84.9492 46.1699 46.2344" xmlns="http://www.w3.org/2000/svg" xmlns:xlink="http://www.w3.org/1999/xlink"><path d="M28.3809-83.5098q0-.580078-.429688-1.00977 -.429688-.429688-1.03125-.429688 -.580078 0-1.00977.429688 -.429688.429688-.429688 1.00977v4.70508q0 .601562.429688 1.02051 .429688.418945 1.00977.418945 .601562 0 1.03125-.418945 .429688-.418945.429688-1.02051Zm0 38.6504q0-.601562-.429688-1.02051 -.429688-.418945-1.03125-.418945 -.580078 0-1.00977.418945 -.429688.418945-.429688 1.02051v4.70508q0 .580078.429688 1.00977 .429688.429688 1.00977.429688 .601562 0 1.03125-.429688 .429688-.429688.429688-1.00977Zm20.1738-15.5332q.601562 0 1.03125-.418945 .429688-.418945.429688-1.02051 0-.580078-.429688-1.00977 -.429688-.429688-1.03125-.429688h-4.68359q-.580078 0-1.00977.429688 -.429688.429688-.429688 1.00977 0 .601562.429688 1.02051 .429688.418945 1.00977.418945Zm-43.2695-2.87891q-.558594 0-.999023.429688 -.44043.429688-.44043 1.00977 0 .601562.44043 1.02051 .44043.418945.999023.418945h4.70508q.580078 0 1.02051-.418945 .44043-.418945.44043-1.02051 0-.580078-.44043-1.00977 -.44043-.429688-1.02051-.429688Zm8.63672-9.49609q.408203.408203 1.00977.408203 .601562 0 1.03125-.408203 .408203-.408203.418945-1.02051 .0107422-.612305-.418945-1.04199l-3.30859-3.33008q-.408203-.408203-1.00977-.418945 -.601562-.0107422-1.05273.418945 -.408203.408203-.408203 1.02051 0 .612305.408203 1.02051Zm23.9551-2.0625q-.429688.429688-.429688 1.03125 0 .601562.429688 1.03125 .408203.408203 1.00977.418945 .601562.0107422 1.05273-.418945l3.33008-3.35156q.408203-.408203.408203-1.02051 0-.612305-.408203-1.02051 -.429688-.429688-1.02051-.429688 -.59082 0-1.02051.429688Zm2.04102 23.9551q-.408203-.408203-1.02051-.408203 -.612305 0-1.02051.408203 -.429688.429688-.429688 1.03125 0 .601562.429688 1.00977l3.35156 3.35156q.429688.429688 1.02051.418945 .59082-.0107422 1.02051-.44043 .408203-.408203.408203-1.00977 0-.601562-.408203-1.03125Zm-29.3477 3.33008q-.408203.408203-.408203 1.00977 0 .601562.408203 1.03125 .408203.408203 1.02051.418945 .612305.0107422 1.04199-.418945l3.33008-3.30859q.408203-.408203.418945-1.02051 .0107422-.612305-.418945-1.02051 -.408203-.429688-1.02051-.429688 -.612305 0-1.02051.429688Zm16.3281-24.8789q-2.16992 0-4.08203.837891 -1.91211.837891-3.37305 2.28809 -1.46094 1.4502-2.28809 3.37305 -.827148 1.92285-.827148 4.09277 0 2.16992.827148 4.09277 .827148 1.92285 2.28809 3.38379 1.46094 1.46094 3.37305 2.29883 1.91211.837891 4.08203.837891 2.16992 0 4.09277-.837891 1.92285-.837891 3.37305-2.29883 1.4502-1.46094 2.28809-3.38379 .837891-1.92285.837891-4.09277 0-2.16992-.837891-4.09277 -.837891-1.92285-2.28809-3.37305 -1.4502-1.4502-3.37305-2.28809 -1.92285-.837891-4.09277-.837891Z" fill="#000"></path></svg>